<svg width="74" height="52" viewBox="0 0 74 52" fill="none" xmlns="http://www.w3.org/2000/svg">
<g clip-path="url(#clip0_119_929)">
<path d="M11.0157 0H0V3.89478H2.57208H11.0051C14.916 3.89478 18.0783 7.03775 18.0783 10.9012C18.0783 14.7751 14.9054 17.9076 11.0051 17.9076H2.57208H0V21.8024H11.0157C17.098 21.8024 22.0313 16.9157 22.0313 10.8908C22.0208 4.88675 17.098 0 11.0157 0Z" fill="#36665C"/>
<path d="M62.9317 0H51.916V3.89478H54.4986H62.9317C66.8425 3.89478 70.0049 7.03775 70.0049 10.9012C70.0049 14.7751 66.832 17.9076 62.9317 17.9076H54.4986H51.9266V21.8024H62.9317C69.014 21.8024 73.9474 16.9157 73.9474 10.8908C73.9474 4.88675 69.014 0 62.9317 0Z" fill="#36665C"/>
<path d="M47.9842 0H25.9634V3.89478H47.9842V0Z" fill="#36665C"/>
<path d="M47.9842 8.95905H29.8953H25.9634V12.8538V21.8129H29.8953V12.8538H47.9842V8.95905Z" fill="#36665C"/>
<path d="M11.0157 0H0V3.89478H2.57208H11.0051C14.916 3.89478 18.0783 7.03775 18.0783 10.9012C18.0783 14.7751 14.9054 17.9076 11.0051 17.9076H2.57208H0V21.8024H11.0157C17.098 21.8024 22.0313 16.9157 22.0313 10.8908C22.0208 4.88675 17.098 0 11.0157 0Z" fill="#36665C"/>
<path d="M62.9317 0H51.916V3.89478H54.4986H62.9317C66.8425 3.89478 70.0049 7.03775 70.0049 10.9012C70.0049 14.7751 66.832 17.9076 62.9317 17.9076H54.4986H51.9266V21.8024H62.9317C69.014 21.8024 73.9474 16.9157 73.9474 10.8908C73.9474 4.88675 69.014 0 62.9317 0Z" fill="#36665C"/>
<path d="M47.9842 0H25.9634V3.89478H47.9842V0Z" fill="#36665C"/>
<path d="M47.9842 8.95905H29.8953H25.9634V12.8538V21.8129H29.8953V12.8538H47.9842V8.95905Z" fill="#36665C"/>
<path d="M0 29.5189H2.74074C3.61567 29.5189 4.32194 29.6546 4.87009 29.9157C5.3339 30.1454 5.68177 30.4586 5.90313 30.8659C6.08234 31.2 6.16667 31.5759 6.16667 31.9831V32.192C6.16667 32.6305 6.08234 33.0169 5.92422 33.3719C5.72393 33.8104 5.39715 34.1446 4.93333 34.3847C4.37464 34.6771 3.63675 34.8233 2.74074 34.8233H0V29.5189ZM1.48632 33.6329H2.67749C3.46809 33.6329 4.01624 33.4659 4.33248 33.1213C4.44843 32.996 4.52222 32.8498 4.57493 32.6827C4.61709 32.5261 4.63818 32.3486 4.63818 32.1606V32.1189C4.63818 31.7116 4.53276 31.3984 4.33248 31.1791C4.02678 30.8554 3.47863 30.6884 2.68803 30.6884H1.48632V33.6329Z" fill="#121214"/>
<path d="M8.71699 29.5189V34.8128H7.24121V29.5189H8.71699Z" fill="#121214"/>
<path d="M14.7149 34.8128L14.2722 33.8313H11.3839L10.9517 34.8128H9.46533L11.8371 29.5189H13.8189L16.2961 34.8128H14.7149ZM13.7768 32.7454L12.8069 30.5839L11.8688 32.7454H13.7768Z" fill="#121214"/>
<path d="M19.6802 34.8965C18.9212 34.8965 18.2993 34.7504 17.7933 34.4475C17.3611 34.1969 17.0449 33.8524 16.8446 33.4243C16.6759 33.0588 16.5811 32.6724 16.5811 32.2652V32.0564C16.5811 31.6387 16.6654 31.2419 16.8446 30.8869C17.0554 30.4588 17.3717 30.1142 17.7933 29.8741C18.2993 29.5921 18.9212 29.4459 19.6802 29.4459H20.007C21.04 29.4459 21.8201 29.6652 22.3472 30.1142C22.5685 30.3022 22.7372 30.5214 22.8426 30.772C22.948 31.0226 23.0007 31.2732 23.0007 31.5447V31.5552H21.4722C21.4617 31.5134 21.4406 31.4403 21.409 31.3463C21.3668 31.2419 21.2825 31.1271 21.1665 31.0331C21.0506 30.9287 20.8925 30.8451 20.6922 30.772C20.4919 30.699 20.2073 30.6572 19.8489 30.6572C19.2375 30.6572 18.7947 30.8034 18.4996 31.1062C18.3731 31.2315 18.2782 31.3881 18.2255 31.5552C18.1623 31.7327 18.1306 31.9102 18.1306 32.0877V32.1921C18.1306 32.3696 18.1623 32.5471 18.2255 32.7142C18.2887 32.8917 18.3836 33.0379 18.5101 33.1841C18.8158 33.5182 19.2585 33.6853 19.8594 33.6853C20.4603 33.6853 20.9135 33.5496 21.2087 33.2781C21.3036 33.1841 21.3774 33.0901 21.4195 32.9961C21.4617 32.9022 21.4828 32.8186 21.4933 32.756H23.0218V32.7769C23.0218 33.0379 22.9691 33.2885 22.8637 33.5391C22.7583 33.7897 22.6001 34.009 22.3788 34.2074C22.1258 34.4267 21.8095 34.5937 21.4195 34.719C21.0295 34.8443 20.5657 34.907 20.0281 34.907H19.6802V34.8965Z" fill="#121214"/>
<path d="M24.0659 34.8128V29.5189H25.5522V31.4819H28.5354V29.5189H30.0218V34.8128H28.5354V32.6827H25.5522V34.8128H24.0659Z" fill="#121214"/>
<path d="M32.2993 34.4369C31.9092 34.1863 31.6352 33.8313 31.4771 33.3719C31.3611 33.0482 31.2979 32.6618 31.2979 32.2128V29.5189H32.7842V32.1711C32.7842 32.5887 32.8685 32.902 33.0477 33.1317C33.3007 33.4763 33.7224 33.6434 34.3232 33.6434H34.3548C34.9557 33.6434 35.3879 33.4763 35.6303 33.1317C35.7885 32.902 35.8728 32.5783 35.8728 32.1711V29.5189H37.3486V32.2128C37.3486 32.6409 37.2853 33.0377 37.1588 33.3823C36.9902 33.8313 36.7055 34.1863 36.3155 34.4369C35.8517 34.7502 35.2298 34.8964 34.4392 34.8964H34.2283C33.4061 34.8964 32.7736 34.7397 32.2993 34.4369Z" fill="#121214"/>
<path d="M40.1099 34.8128H38.6235V29.5189H40.1099V31.7012L42.6082 29.5189H44.495L41.67 31.9518L44.611 34.8233H42.6819L40.1099 32.3277V34.8128Z" fill="#121214"/>
<path d="M0 38.0602H4.87009V39.2402H1.47578V40.1904H4.77521V41.4016H1.47578V43.3647H0V38.0602Z" fill="#121214"/>
<path d="M10.2574 43.3644L9.81465 42.3829H6.93687L6.50468 43.3644H5.00781L7.37961 38.0704H9.36137L11.8386 43.3644H10.2574ZM9.32975 41.2865L8.35995 39.125L7.42177 41.2865H9.32975Z" fill="#121214"/>
<path d="M12.5864 43.3644V38.0704H14.5577L16.2653 41.6624L18.0152 38.0704H19.8599V43.3644H18.4158V39.8977L16.7924 43.3644H15.6329L14.0095 39.8977V43.3644H12.5864Z" fill="#121214"/>
<path d="M22.6748 38.0603V43.3542H21.1885V38.0603H22.6748Z" fill="#121214"/>
<path d="M23.9922 38.0602H25.4785V42.1116H28.7463V43.3542H23.9922V38.0602Z" fill="#121214"/>
<path d="M30.591 43.3647V41.4225L27.9346 38.0603H29.7688L31.371 40.1591L32.9733 38.0603H34.6283L32.0668 41.4329V43.3647H30.591Z" fill="#121214"/>
<path d="M0 46.6118H2.74074C3.61567 46.6118 4.32194 46.7476 4.87009 47.0086C5.3339 47.2383 5.68177 47.5516 5.90313 47.9588C6.08234 48.2929 6.16667 48.6688 6.16667 49.0761V49.2849C6.16667 49.7235 6.08234 50.1098 5.92422 50.4648C5.72393 50.9034 5.39715 51.2375 4.93333 51.4777C4.37464 51.77 3.63675 51.9162 2.74074 51.9162H0V46.6118ZM1.48632 50.7259H2.67749C3.46809 50.7259 4.01624 50.5588 4.33248 50.2142C4.44843 50.0889 4.52222 49.9427 4.57493 49.7757C4.61709 49.619 4.63818 49.4415 4.63818 49.2536V49.2118C4.63818 48.8046 4.53276 48.4913 4.33248 48.2721C4.02678 47.9484 3.47863 47.7813 2.68803 47.7813H1.48632V50.7259Z" fill="#121214"/>
<path d="M7.24121 46.6118H12.1429V47.7708H8.69591V48.6375H12.0269V49.8383H8.69591V50.7572H12.1745V51.9266H7.24121V46.6118Z" fill="#121214"/>
<path d="M17.2252 51.9058H15.2751L12.7979 46.6118H14.5266L16.2659 50.6319L18.0158 46.6118H19.6286L17.2252 51.9058Z" fill="#121214"/>
<path d="M20.3765 46.6118H25.2782V47.7709H21.8417V48.6375H25.1728V49.8383H21.8417V50.7572H25.3203V51.9267H20.3765V46.6118Z" fill="#121214"/>
<path d="M26.5015 46.6118H27.9878V50.6632H31.2556V51.9058H26.5015V46.6118Z" fill="#121214"/>
<path d="M35.3458 46.5285C35.9361 46.5285 36.4526 46.6016 36.8743 46.7583C37.2959 46.9149 37.6333 47.1237 37.8968 47.3952C38.1287 47.6354 38.2974 47.9069 38.4028 48.2097C38.5082 48.5125 38.5609 48.8257 38.5609 49.139V49.3478C38.5609 49.6611 38.5082 49.9639 38.4028 50.2667C38.2974 50.5695 38.1287 50.8514 37.8968 51.0916C37.6333 51.3735 37.2854 51.5928 36.8637 51.7494C36.4421 51.906 35.9361 51.9896 35.3458 51.9896H35.0296C34.26 51.9896 33.6065 51.8434 33.09 51.551C32.6367 51.3004 32.2994 50.9558 32.0991 50.5277C31.9093 50.1623 31.8145 49.7655 31.8145 49.3374V49.1285C31.8145 48.7004 31.9093 48.3036 32.0991 47.9382C32.3099 47.5101 32.6367 47.1759 33.09 46.9358C33.6065 46.6538 34.26 46.5181 35.0296 46.5181H35.3458V46.5285ZM37.0219 49.2016C37.0219 48.8048 36.9059 48.4811 36.674 48.2305C36.3683 47.9069 35.8834 47.7502 35.1877 47.7502C34.513 47.7502 34.0281 47.9069 33.7119 48.2305C33.4694 48.4811 33.3535 48.8048 33.3535 49.2016V49.306C33.3535 49.4836 33.3851 49.6506 33.4378 49.8281C33.4905 49.9952 33.5854 50.1518 33.7224 50.2876C34.0387 50.6217 34.5236 50.7888 35.1877 50.7888C35.8729 50.7888 36.3578 50.6217 36.674 50.2876C36.9059 50.037 37.0219 49.7133 37.0219 49.3165V49.2016Z" fill="#121214"/>
<path d="M41.1318 50.2142V51.9058H39.6455V46.6118H43.2717C44.0623 46.6118 44.6421 46.7789 45.011 47.1026C45.3273 47.3949 45.4854 47.8126 45.4854 48.366V48.4391C45.4854 48.9925 45.3273 49.4102 45.0005 49.7025C44.6315 50.0367 44.0518 50.2038 43.2717 50.2038H41.1318V50.2142ZM41.1318 49.0343H43.1663C43.6934 49.0343 43.9464 48.8359 43.9464 48.4287V48.3973C43.9464 48.2094 43.8831 48.0632 43.7566 47.9483C43.6301 47.8439 43.4298 47.7917 43.1663 47.7917H41.1318V49.0343Z" fill="#121214"/>
<path d="M46.519 51.9058V46.6118H48.4903L50.198 50.2038L51.9478 46.6118H53.7925V51.9058H52.3484V48.4391L50.725 51.9058H49.5655L47.9421 48.4391V51.9058H46.519Z" fill="#121214"/>
<path d="M55.1201 46.6118H60.0218V47.7708H56.5854V48.6375H59.9164V49.8383H56.5854V50.7572H60.064V51.9266H55.1201V46.6118Z" fill="#121214"/>
<path d="M65.8833 51.9058L62.6893 48.4705V51.9058H61.2451V46.6118H62.7736L65.9044 50.0263V46.6118H67.338V51.9058H65.8833Z" fill="#121214"/>
<path d="M70.3947 51.9058V47.823H68.3286V46.6118H73.9471V47.823H71.881V51.9162H70.3947V51.9058Z" fill="#121214"/>
</g>
<defs>
<clipPath id="clip0_119_929">
<rect width="74" height="52" fill="white"/>
</clipPath>
</defs>
</svg>
